<?xml version="1.0" encoding="UTF-8"?>
<svg id="Layer_1" data-name="Layer 1" xmlns="http://www.w3.org/2000/svg" viewBox="0 0 24 24">
  <defs>
    <style>
      .cls-1 {
        fill: #070707;
      }

      .cls-2 {
        fill: #f4f4f4;
      }
    </style>
  </defs>
  <circle class="cls-1" cx="12" cy="12" r="12"/>
  <g>
    <path class="cls-2" d="M4.44,12.63v-1.02l6.79-2.82v1.14l-5.28,2.17,5.28,2.17v1.19l-6.79-2.83Z"/>
    <path class="cls-2" d="M11.88,13.71h1.27c.3,1.89,1.24,2.68,2.74,2.68,1.41,0,2.35-.74,2.35-2.07s-.84-2.02-2.19-2.02h-1.48v-1.03h1.45c1.21,0,1.96-.66,1.96-1.81s-.84-1.84-2.14-1.84c-1.47,0-2.28.75-2.59,2.29h-1.26c.28-2.04,1.62-3.33,3.9-3.33,2.02,0,3.4,1.05,3.4,2.8,0,1.15-.63,2.01-1.74,2.37,1.29.33,1.99,1.26,1.99,2.62,0,1.93-1.5,3.06-3.63,3.06-2.31,0-3.78-1.2-4.05-3.72Z"/>
  </g>
</svg>